<mxfile host="65bd71144e">
    <diagram id="Dyl52zyOloZnfWm2gOkl" name="Page-1">
        <mxGraphModel dx="1449" dy="1080" grid="1" gridSize="10" guides="1" tooltips="1" connect="1" arrows="1" fold="1" page="1" pageScale="1" pageWidth="827" pageHeight="1169" math="0" shadow="0">
            <root>
                <mxCell id="0"/>
                <mxCell id="1" parent="0"/>
                <mxCell id="9" value="Définir l'état" style="swimlane;whiteSpace=wrap;html=1;" vertex="1" parent="1">
                    <mxGeometry x="170" y="10" width="960" height="460" as="geometry"/>
                </mxCell>
                <mxCell id="7" value="" style="edgeStyle=none;html=1;entryX=0;entryY=0.5;entryDx=0;entryDy=0;" edge="1" parent="9" target="12">
                    <mxGeometry relative="1" as="geometry">
                        <mxPoint x="150" y="239.3800000000001" as="sourcePoint"/>
                        <mxPoint x="200" y="239.3800000000001" as="targetPoint"/>
                    </mxGeometry>
                </mxCell>
                <mxCell id="22" value="" style="edgeStyle=none;html=1;" edge="1" parent="9" source="2" target="21">
                    <mxGeometry relative="1" as="geometry"/>
                </mxCell>
                <mxCell id="2" value="nombre de particules variables" style="rounded=0;whiteSpace=wrap;html=1;" vertex="1" parent="9">
                    <mxGeometry x="53" y="350" width="180" height="50" as="geometry"/>
                </mxCell>
                <mxCell id="11" value="système de particules chaotiques" style="rounded=0;whiteSpace=wrap;html=1;" vertex="1" parent="9">
                    <mxGeometry x="30" y="210" width="120" height="60" as="geometry"/>
                </mxCell>
                <mxCell id="23" style="edgeStyle=none;html=1;exitX=1;exitY=0.5;exitDx=0;exitDy=0;entryX=0.372;entryY=-0.005;entryDx=0;entryDy=0;entryPerimeter=0;" edge="1" parent="9" source="12" target="21">
                    <mxGeometry relative="1" as="geometry"/>
                </mxCell>
                <mxCell id="12" value="pas de sens de faire le suivi individuel alors que le comportement est plus général" style="whiteSpace=wrap;html=1;rounded=0;" vertex="1" parent="9">
                    <mxGeometry x="200" y="170" width="200" height="100" as="geometry"/>
                </mxCell>
                <mxCell id="28" style="edgeStyle=none;html=1;entryX=0.5;entryY=0;entryDx=0;entryDy=0;" edge="1" parent="9" source="14" target="27">
                    <mxGeometry relative="1" as="geometry"/>
                </mxCell>
                <mxCell id="14" value="Définir l'état comme position de chaque particule + intensité" style="rounded=0;whiteSpace=wrap;html=1;" vertex="1" parent="9">
                    <mxGeometry x="30" y="60" width="370" height="50" as="geometry"/>
                </mxCell>
                <mxCell id="31" value="" style="edgeStyle=none;html=1;" edge="1" parent="9" source="21" target="30">
                    <mxGeometry relative="1" as="geometry"/>
                </mxCell>
                <mxCell id="21" value="Regrouper les particules" style="whiteSpace=wrap;html=1;rounded=0;" vertex="1" parent="9">
                    <mxGeometry x="520" y="300" width="120" height="60" as="geometry"/>
                </mxCell>
                <mxCell id="29" style="edgeStyle=none;html=1;exitX=0.5;exitY=1;exitDx=0;exitDy=0;entryX=0.5;entryY=0;entryDx=0;entryDy=0;" edge="1" parent="9" source="27" target="21">
                    <mxGeometry relative="1" as="geometry"/>
                </mxCell>
                <mxCell id="27" value="problème de grande dimension" style="rounded=0;whiteSpace=wrap;html=1;" vertex="1" parent="9">
                    <mxGeometry x="470" y="120" width="120" height="60" as="geometry"/>
                </mxCell>
                <mxCell id="30" value="C'est ce qui est fait dans l'article.... Oui MAIS&amp;nbsp;" style="whiteSpace=wrap;html=1;rounded=0;" vertex="1" parent="9">
                    <mxGeometry x="720" y="300" width="120" height="60" as="geometry"/>
                </mxCell>
                <mxCell id="73" value="" style="edgeStyle=none;html=1;" edge="1" parent="1" source="15" target="72">
                    <mxGeometry relative="1" as="geometry"/>
                </mxCell>
                <mxCell id="15" value="Mettre à jour l'état&amp;nbsp;" style="swimlane;whiteSpace=wrap;html=1;" vertex="1" parent="1">
                    <mxGeometry x="70" y="550" width="1090" height="560" as="geometry"/>
                </mxCell>
                <mxCell id="17" value="Méthodes variationnelles" style="swimlane;whiteSpace=wrap;html=1;startSize=23;" vertex="1" parent="15">
                    <mxGeometry x="140" y="330" width="800" height="200" as="geometry"/>
                </mxCell>
                <mxCell id="20" value="" style="edgeStyle=none;html=1;" edge="1" parent="17" source="16" target="19">
                    <mxGeometry relative="1" as="geometry"/>
                </mxCell>
                <mxCell id="16" value="Problème d'optimisation sous contrainte" style="rounded=0;whiteSpace=wrap;html=1;" vertex="1" parent="17">
                    <mxGeometry x="80" y="40" width="140" height="60" as="geometry"/>
                </mxCell>
                <mxCell id="19" value="marche si relaxation des contraintes d'interpénétration" style="whiteSpace=wrap;html=1;rounded=0;" vertex="1" parent="17">
                    <mxGeometry x="360" y="30" width="280" height="80" as="geometry"/>
                </mxCell>
                <mxCell id="226" value="&lt;font style=&quot;font-size: 12px;&quot;&gt;problème non linéaire --&amp;gt; L'opérateur d'observation est non linéaire par rapport aux positions&lt;/font&gt;" style="rounded=0;whiteSpace=wrap;html=1;fontSize=48;" vertex="1" parent="17">
                    <mxGeometry x="80" y="120" width="560" height="60" as="geometry"/>
                </mxCell>
                <mxCell id="18" value="Méthode de mise à jour statistiques" style="swimlane;whiteSpace=wrap;html=1;" vertex="1" parent="15">
                    <mxGeometry x="40" y="50" width="610" height="280" as="geometry"/>
                </mxCell>
                <mxCell id="34" value="Pas de sens&amp;nbsp;" style="rounded=0;whiteSpace=wrap;html=1;" vertex="1" parent="18">
                    <mxGeometry x="80" y="60" width="120" height="60" as="geometry"/>
                </mxCell>
                <mxCell id="33" value="" style="endArrow=classic;html=1;exitX=0.5;exitY=1;exitDx=0;exitDy=0;entryX=0.5;entryY=0;entryDx=0;entryDy=0;" edge="1" parent="1" source="30" target="18">
                    <mxGeometry width="50" height="50" relative="1" as="geometry">
                        <mxPoint x="370" y="670" as="sourcePoint"/>
                        <mxPoint x="420" y="620" as="targetPoint"/>
                    </mxGeometry>
                </mxCell>
                <mxCell id="36" value="Définir l'état" style="swimlane;whiteSpace=wrap;html=1;" vertex="1" parent="1">
                    <mxGeometry x="1170" y="10" width="1050" height="760" as="geometry"/>
                </mxCell>
                <mxCell id="50" value="MEME problématique que pour DEM" style="rounded=0;whiteSpace=wrap;html=1;" vertex="1" parent="36">
                    <mxGeometry x="710" y="40" width="120" height="60" as="geometry"/>
                </mxCell>
                <mxCell id="52" value="" style="swimlane;startSize=0;" vertex="1" parent="36">
                    <mxGeometry x="71" y="130" width="879" height="580" as="geometry"/>
                </mxCell>
                <mxCell id="37" value="" style="edgeStyle=none;html=1;entryX=0;entryY=0.5;entryDx=0;entryDy=0;" edge="1" parent="52" target="42">
                    <mxGeometry relative="1" as="geometry">
                        <mxPoint x="140" y="309.3800000000001" as="sourcePoint"/>
                        <mxPoint x="190" y="309.3800000000001" as="targetPoint"/>
                    </mxGeometry>
                </mxCell>
                <mxCell id="39" value="nombre de particules variables" style="rounded=0;whiteSpace=wrap;html=1;" vertex="1" parent="52">
                    <mxGeometry x="43" y="420" width="180" height="50" as="geometry"/>
                </mxCell>
                <mxCell id="40" value="système de particules chaotiques" style="rounded=0;whiteSpace=wrap;html=1;" vertex="1" parent="52">
                    <mxGeometry x="20" y="280" width="120" height="60" as="geometry"/>
                </mxCell>
                <mxCell id="42" value="pas de sens de faire le suivi individuel alors que le comportement est plus général" style="whiteSpace=wrap;html=1;rounded=0;" vertex="1" parent="52">
                    <mxGeometry x="190" y="240" width="200" height="100" as="geometry"/>
                </mxCell>
                <mxCell id="46" value="Regrouper les particules" style="whiteSpace=wrap;html=1;rounded=0;" vertex="1" parent="52">
                    <mxGeometry x="510" y="370" width="120" height="60" as="geometry"/>
                </mxCell>
                <mxCell id="38" value="" style="edgeStyle=none;html=1;" edge="1" parent="52" source="39" target="46">
                    <mxGeometry relative="1" as="geometry"/>
                </mxCell>
                <mxCell id="41" style="edgeStyle=none;html=1;exitX=1;exitY=0.5;exitDx=0;exitDy=0;entryX=0.372;entryY=-0.005;entryDx=0;entryDy=0;entryPerimeter=0;" edge="1" parent="52" source="42" target="46">
                    <mxGeometry relative="1" as="geometry"/>
                </mxCell>
                <mxCell id="47" style="edgeStyle=none;html=1;exitX=0.5;exitY=1;exitDx=0;exitDy=0;entryX=0.5;entryY=0;entryDx=0;entryDy=0;" edge="1" parent="52" source="48" target="46">
                    <mxGeometry relative="1" as="geometry"/>
                </mxCell>
                <mxCell id="48" value="problème de grande dimension" style="rounded=0;whiteSpace=wrap;html=1;" vertex="1" parent="52">
                    <mxGeometry x="460" y="190" width="120" height="60" as="geometry"/>
                </mxCell>
                <mxCell id="44" value="Définir l'état comme position de chaque particule + intensité" style="rounded=0;whiteSpace=wrap;html=1;" vertex="1" parent="52">
                    <mxGeometry y="130" width="370" height="50" as="geometry"/>
                </mxCell>
                <mxCell id="43" style="edgeStyle=none;html=1;entryX=0.5;entryY=0;entryDx=0;entryDy=0;" edge="1" parent="52" source="44" target="48">
                    <mxGeometry relative="1" as="geometry"/>
                </mxCell>
                <mxCell id="51" value="" style="endArrow=classic;html=1;exitX=0.5;exitY=1;exitDx=0;exitDy=0;" edge="1" parent="36" source="50" target="52">
                    <mxGeometry width="50" height="50" relative="1" as="geometry">
                        <mxPoint x="260" y="540" as="sourcePoint"/>
                        <mxPoint x="670" y="130" as="targetPoint"/>
                    </mxGeometry>
                </mxCell>
                <mxCell id="56" value="CE qui est aussi fait dans Vortex Prevost" style="rounded=0;whiteSpace=wrap;html=1;" vertex="1" parent="1">
                    <mxGeometry x="1910" y="590" width="120" height="60" as="geometry"/>
                </mxCell>
                <mxCell id="55" value="" style="endArrow=classic;html=1;exitX=1;exitY=0.25;exitDx=0;exitDy=0;" edge="1" parent="1" source="46" target="56">
                    <mxGeometry width="50" height="50" relative="1" as="geometry">
                        <mxPoint x="1920" y="670" as="sourcePoint"/>
                        <mxPoint x="1970" y="620" as="targetPoint"/>
                    </mxGeometry>
                </mxCell>
                <mxCell id="57" value="" style="endArrow=classic;html=1;exitX=0.5;exitY=1;exitDx=0;exitDy=0;" edge="1" parent="1" source="56" target="58">
                    <mxGeometry width="50" height="50" relative="1" as="geometry">
                        <mxPoint x="1430" y="540" as="sourcePoint"/>
                        <mxPoint x="1520" y="870" as="targetPoint"/>
                    </mxGeometry>
                </mxCell>
                <mxCell id="60" value="" style="edgeStyle=none;html=1;" edge="1" parent="1" source="58" target="59">
                    <mxGeometry relative="1" as="geometry"/>
                </mxCell>
                <mxCell id="58" value="DANS CE CAS&amp;nbsp;" style="rounded=0;whiteSpace=wrap;html=1;" vertex="1" parent="1">
                    <mxGeometry x="1460" y="840" width="120" height="60" as="geometry"/>
                </mxCell>
                <mxCell id="59" value="plus de problème d'interpénétration car ce ne sont pas des particules physiques" style="whiteSpace=wrap;html=1;rounded=0;" vertex="1" parent="1">
                    <mxGeometry x="1660" y="840" width="310" height="60" as="geometry"/>
                </mxCell>
                <mxCell id="66" value="" style="edgeStyle=none;html=1;" edge="1" parent="1" source="64" target="65">
                    <mxGeometry relative="1" as="geometry"/>
                </mxCell>
                <mxCell id="64" value="MAIS QUAND MEME quel sens de faire CL DE POSITIONS dans le cadre générale ?&lt;br&gt;&lt;br&gt;QUEL EST LE SENS DE LA MISE A JOUR STATISTIQUE" style="rounded=0;whiteSpace=wrap;html=1;" vertex="1" parent="1">
                    <mxGeometry x="1500" y="960" width="460" height="100" as="geometry"/>
                </mxCell>
                <mxCell id="68" value="" style="edgeStyle=none;html=1;" edge="1" parent="1" source="65" target="67">
                    <mxGeometry relative="1" as="geometry"/>
                </mxCell>
                <mxCell id="65" value="Prendre l'exemple d'un objet incertain selon son orientation" style="whiteSpace=wrap;html=1;rounded=0;" vertex="1" parent="1">
                    <mxGeometry x="2210" y="980" width="120" height="60" as="geometry"/>
                </mxCell>
                <mxCell id="70" value="" style="edgeStyle=none;html=1;" edge="1" parent="1" source="67" target="69">
                    <mxGeometry relative="1" as="geometry"/>
                </mxCell>
                <mxCell id="67" value="Alors l'estimateur moyen est tout simplement... Un point !&amp;nbsp;" style="whiteSpace=wrap;html=1;rounded=0;" vertex="1" parent="1">
                    <mxGeometry x="2380" y="810" width="309" height="80" as="geometry"/>
                </mxCell>
                <mxCell id="69" value="CONCLIUSION:&amp;nbsp;&lt;br&gt;Dans le cas général&lt;br&gt;de problème de grande dimension&lt;br&gt;Avec un nombre de particules potentiellement différents&lt;br&gt;où la défintion de l'état défini comme position intensité&lt;br&gt;&lt;br&gt;Il n'y a pas de méthodes proposées dans la littérature" style="whiteSpace=wrap;html=1;rounded=0;" vertex="1" parent="1">
                    <mxGeometry x="2863.5" y="820" width="436.5" height="200" as="geometry"/>
                </mxCell>
                <mxCell id="72" value="CONCLUSION:&lt;br&gt;&lt;br&gt;" style="whiteSpace=wrap;html=1;fontStyle=1;startSize=23;" vertex="1" parent="1">
                    <mxGeometry x="215" y="1160" width="800" height="140" as="geometry"/>
                </mxCell>
                <mxCell id="74" value="IL Y A&amp;nbsp; AUSSI DES INSPIRATIONS&amp;nbsp;&lt;br&gt;&lt;br&gt;&lt;br&gt;Ex le cas des maillages qui bougent ou bien le multi grilles; Mettre les citations&lt;br&gt;&lt;br&gt;Pour ce faire il font des opérations de projection pour se ramener dans un état qui partage un meme sens." style="rounded=0;whiteSpace=wrap;html=1;" vertex="1" parent="1">
                    <mxGeometry x="1350" y="1220" width="1400" height="180" as="geometry"/>
                </mxCell>
                <mxCell id="224" value="&lt;font style=&quot;font-size: 48px;&quot;&gt;Comme plan, il faut mieux faire :&lt;br&gt;1) Définition de l'état&lt;br&gt;2) Mise à jour de l'état&lt;br&gt;3) Littérature&lt;br&gt;&lt;/font&gt;" style="rounded=0;whiteSpace=wrap;html=1;" vertex="1" parent="1">
                    <mxGeometry x="140" y="1470" width="1610" height="440" as="geometry"/>
                </mxCell>
            </root>
        </mxGraphModel>
    </diagram>
</mxfile>